ffmpeg version N-101030-g129bab5c7e-ge0fd35d867+2 Copyright (c) 2000-2021 the FFmpeg developers
  built with gcc 10.2.0 (Rev6, Built by MSYS2 project)
  configuration:  --pkg-config=pkgconf --cc='ccache gcc' --cxx='ccache g++' --disable-autodetect --enable-amf --enable-bzlib --enable-cuda --enable-cuvid --enable-d3d11va --enable-dxva2 --enable-iconv --enable-lzma --enable-nvenc --enable-zlib --enable-sdl2 --enable-ffnvcodec --enable-nvdec --enable-cuda-llvm --enable-libmp3lame --enable-libopus --enable-libvorbis --enable-libvpx --enable-libx264 --enable-libx265 --enable-libdav1d --enable-libaom --disable-debug --enable-fontconfig --enable-libass --enable-libbluray --enable-libfreetype --enable-libmfx --enable-libmysofa --enable-libopencore-amrnb --enable-libopencore-amrwb --enable-libopenjpeg --enable-libsnappy --enable-libsoxr --enable-libspeex --enable-libtheora --enable-libtwolame --enable-libvidstab --enable-libvo-amrwbenc --enable-libwebp --enable-libxml2 --enable-libzimg --enable-libshine --enable-gpl --enable-avisynth --enable-libxvid --enable-libopenmpt --enable-version3 --enable-libsrt --enable-libgsm --enable-libvmaf --enable-libsvtav1 --enable-librtmp --enable-mbedtls --extra-cflags=-DLIBTWOLAME_STATIC --extra-libs=-lstdc++ --extra-cflags=-DLIBXML_STATIC --extra-libs=-liconv --disable-w32threads
  libavutil      56. 64.100 / 56. 64.100
  libavcodec     58.122.100 / 58.122.100
  libavformat    58. 67.100 / 58. 67.100
  libavdevice    58. 11.103 / 58. 11.103
  libavfilter     7.103.100 /  7.103.100
  libswscale      5.  8.100 /  5.  8.100
  libswresample   3.  8.100 /  3.  8.100
  libpostproc    55.  8.100 / 55.  8.100
Splitting the commandline.
Reading option '-v' ... matched as option 'v' (set logging level) with argument 'debug'.
Reading option '-nostdin' ... matched as option 'stdin' (enable or disable interaction on standard input) with argument 0.
Reading option '-progress' ... matched as option 'progress' (write program-readable progress information) with argument 'C:/Users/Acer/AppData/Local/Temp/KritaFFmpegProgress.ygNbHc'.
Reading option '-r' ... matched as option 'r' (set frame rate (Hz value, fraction or abbreviation)) with argument '24'.
Reading option '-start_number' ... matched as AVOption 'start_number' with argument '0'.
Reading option '-i' ... matched as input url with argument 'D:/Peliprojektit/Projektit/Baltic_Loop/QGIS_kartta/frame%04d.png'.
Reading option '-vf' ... matched as option 'vf' (set video filters) with argument 'palettegen'.
Reading option '-y' ... matched as option 'y' (overwrite output files) with argument '1'.
Reading option 'D:/Peliprojektit/Projektit/Baltic_Loop/QGIS_kartta/palette.png' ... matched as output url.
Finished splitting the commandline.
Parsing a group of options: global .
Applying option v (set logging level) with argument debug.
Applying option nostdin (enable or disable interaction on standard input) with argument 0.
Applying option progress (write program-readable progress information) with argument C:/Users/Acer/AppData/Local/Temp/KritaFFmpegProgress.ygNbHc.
[file @ 00000250bd80d380] Setting default whitelist 'file,crypto,data'
Applying option y (overwrite output files) with argument 1.
Successfully parsed a group of options.
Parsing a group of options: input url D:/Peliprojektit/Projektit/Baltic_Loop/QGIS_kartta/frame%04d.png.
Applying option r (set frame rate (Hz value, fraction or abbreviation)) with argument 24.
Successfully parsed a group of options.
Opening an input file: D:/Peliprojektit/Projektit/Baltic_Loop/QGIS_kartta/frame%04d.png.
[image2 @ 00000250bd84df00] Opening 'D:/Peliprojektit/Projektit/Baltic_Loop/QGIS_kartta/frame0000.png' for reading
[file @ 00000250bd851a00] Setting default whitelist 'file,crypto,data'
[AVIOContext @ 00000250bd859bc0] Statistics: 1006313 bytes read, 0 seeks
[image2 @ 00000250bd84df00] Opening 'D:/Peliprojektit/Projektit/Baltic_Loop/QGIS_kartta/frame0001.png' for reading
[file @ 00000250bdd05dc0] Setting default whitelist 'file,crypto,data'
[AVIOContext @ 00000250bdd05f40] Statistics: 1005481 bytes read, 0 seeks
[image2 @ 00000250bd84df00] Opening 'D:/Peliprojektit/Projektit/Baltic_Loop/QGIS_kartta/frame0002.png' for reading
[file @ 00000250bdd05e80] Setting default whitelist 'file,crypto,data'
[AVIOContext @ 00000250bd868a40] Statistics: 1004514 bytes read, 0 seeks
[image2 @ 00000250bd84df00] Opening 'D:/Peliprojektit/Projektit/Baltic_Loop/QGIS_kartta/frame0003.png' for reading
[file @ 00000250bd868c00] Setting default whitelist 'file,crypto,data'
[AVIOContext @ 00000250bd868a40] Statistics: 1003717 bytes read, 0 seeks
[image2 @ 00000250bd84df00] Opening 'D:/Peliprojektit/Projektit/Baltic_Loop/QGIS_kartta/frame0004.png' for reading
[file @ 00000250bd868c00] Setting default whitelist 'file,crypto,data'
[AVIOContext @ 00000250bd868a40] Statistics: 1002973 bytes read, 0 seeks
[image2 @ 00000250bd84df00] Probe buffer size limit of 5000000 bytes reached
Input #0, image2, from 'D:/Peliprojektit/Projektit/Baltic_Loop/QGIS_kartta/frame%04d.png':
  Duration: 00:00:02.04, start: 0.000000, bitrate: N/A
  Stream #0:0, 5, 1/25: Video: png, 1 reference frame, rgba(pc), 3200x1800 [SAR 19685:19685 DAR 16:9], 0/1, 25 fps, 25 tbr, 25 tbn, 25 tbc
Successfully opened the file.
Parsing a group of options: output url D:/Peliprojektit/Projektit/Baltic_Loop/QGIS_kartta/palette.png.
Applying option vf (set video filters) with argument palettegen.
Successfully parsed a group of options.
Opening an output file: D:/Peliprojektit/Projektit/Baltic_Loop/QGIS_kartta/palette.png.
Successfully opened the file.
detected 8 logical cores
Stream mapping:
  Stream #0:0 -> #0:0 (png (native) -> png (native))
cur_dts is invalid st:0 (0) [init:0 i_done:0 finish:0] (this is harmless if it occurs once at the start per stream)
    Last message repeated 5 times
[image2 @ 00000250bd84df00] Opening 'D:/Peliprojektit/Projektit/Baltic_Loop/QGIS_kartta/frame0005.png' for reading
[file @ 00000250bdd05e00] Setting default whitelist 'file,crypto,data'
[AVIOContext @ 00000250bd857e80] Statistics: 1002113 bytes read, 0 seeks
cur_dts is invalid st:0 (0) [init:0 i_done:0 finish:0] (this is harmless if it occurs once at the start per stream)
[image2 @ 00000250bd84df00] Opening 'D:/Peliprojektit/Projektit/Baltic_Loop/QGIS_kartta/frame0006.png' for reading
[file @ 00000250bdd05e00] Setting default whitelist 'file,crypto,data'
[AVIOContext @ 00000250bd857e80] Statistics: 1001421 bytes read, 0 seeks
cur_dts is invalid st:0 (0) [init:0 i_done:0 finish:0] (this is harmless if it occurs once at the start per stream)
[image2 @ 00000250bd84df00] Opening 'D:/Peliprojektit/Projektit/Baltic_Loop/QGIS_kartta/frame0007.png' for reading
[file @ 00000250bdd05e00] Setting default whitelist 'file,crypto,data'
[AVIOContext @ 00000250bd857e80] Statistics: 1000666 bytes read, 0 seeks
cur_dts is invalid st:0 (0) [init:0 i_done:0 finish:0] (this is harmless if it occurs once at the start per stream)
[image2 @ 00000250bd84df00] Opening 'D:/Peliprojektit/Projektit/Baltic_Loop/QGIS_kartta/frame0008.png' for reading
[file @ 00000250bdd05e00] Setting default whitelist 'file,crypto,data'
[AVIOContext @ 00000250bd857e80] Statistics: 999884 bytes read, 0 seeks
[graph 0 input from stream 0:0 @ 00000250bdd05e00] Setting 'video_size' to value '3200x1800'
[graph 0 input from stream 0:0 @ 00000250bdd05e00] Setting 'pix_fmt' to value '26'
[graph 0 input from stream 0:0 @ 00000250bdd05e00] Setting 'time_base' to value '1/24'
[graph 0 input from stream 0:0 @ 00000250bdd05e00] Setting 'pixel_aspect' to value '19685/19685'
[graph 0 input from stream 0:0 @ 00000250bdd05e00] Setting 'frame_rate' to value '24/1'
[graph 0 input from stream 0:0 @ 00000250bdd05e00] w:3200 h:1800 pixfmt:rgba tb:1/24 fr:24/1 sar:19685/19685
[format @ 00000250bde02880] Setting 'pix_fmts' to value 'rgb24|rgba|rgb48be|rgba64be|pal8|gray|ya8|gray16be|ya16be|monob'
[auto_scaler_0 @ 00000250bd86a940] Setting 'flags' to value 'bicubic'
[auto_scaler_0 @ 00000250bd86a940] w:iw h:ih flags:'bicubic' interl:0
[Parsed_palettegen_0 @ 00000250bc1778c0] auto-inserting filter 'auto_scaler_0' between the filter 'graph 0 input from stream 0:0' and the filter 'Parsed_palettegen_0'
[auto_scaler_1 @ 00000250bd86ae40] Setting 'flags' to value 'bicubic'
[auto_scaler_1 @ 00000250bd86ae40] w:iw h:ih flags:'bicubic' interl:0
[format @ 00000250bde02880] auto-inserting filter 'auto_scaler_1' between the filter 'Parsed_palettegen_0' and the filter 'format'
[AVFilterGraph @ 00000250bde0ee80] query_formats: 4 queried, 1 merged, 2 already done, 0 delayed
[auto_scaler_1 @ 00000250bd86ae40] picking rgba out of 10 ref:bgra alpha:1
[swscaler @ 00000250c6a07fc0] Forcing full internal H chroma due to input having non subsampled chroma
[auto_scaler_0 @ 00000250bd86a940] w:3200 h:1800 fmt:rgba sar:19685/19685 -> w:3200 h:1800 fmt:bgra sar:1/1 flags:0x4
[swscaler @ 00000250c6a2fac0] Forcing full internal H chroma due to input having non subsampled chroma
[auto_scaler_1 @ 00000250bd86ae40] w:16 h:16 fmt:bgra sar:1/1 -> w:16 h:16 fmt:rgba sar:1/1 flags:0x4
cur_dts is invalid st:0 (0) [init:0 i_done:0 finish:0] (this is harmless if it occurs once at the start per stream)
[image2 @ 00000250bd84df00] Opening 'D:/Peliprojektit/Projektit/Baltic_Loop/QGIS_kartta/frame0009.png' for reading
[file @ 00000250bd886ec0] Setting default whitelist 'file,crypto,data'
[AVIOContext @ 00000250bd8aa740] Statistics: 998971 bytes read, 0 seeks
cur_dts is invalid st:0 (0) [init:0 i_done:0 finish:0] (this is harmless if it occurs once at the start per stream)
[image2 @ 00000250bd84df00] Opening 'D:/Peliprojektit/Projektit/Baltic_Loop/QGIS_kartta/frame0010.png' for reading
[file @ 00000250bd886fc0] Setting default whitelist 'file,crypto,data'
[AVIOContext @ 00000250bd8aa740] Statistics: 998071 bytes read, 0 seeks
cur_dts is invalid st:0 (0) [init:0 i_done:0 finish:0] (this is harmless if it occurs once at the start per stream)
[image2 @ 00000250bd84df00] Opening 'D:/Peliprojektit/Projektit/Baltic_Loop/QGIS_kartta/frame0011.png' for reading
[file @ 00000250bd887440] Setting default whitelist 'file,crypto,data'
[AVIOContext @ 00000250bdd05c00] Statistics: 997201 bytes read, 0 seeks
cur_dts is invalid st:0 (0) [init:0 i_done:0 finish:0] (this is harmless if it occurs once at the start per stream)
[image2 @ 00000250bd84df00] Opening 'D:/Peliprojektit/Projektit/Baltic_Loop/QGIS_kartta/frame0012.png' for reading
[file @ 00000250bd886a00] Setting default whitelist 'file,crypto,data'
[AVIOContext @ 00000250bdd05f00] Statistics: 996548 bytes read, 0 seeks
cur_dts is invalid st:0 (0) [init:0 i_done:0 finish:0] (this is harmless if it occurs once at the start per stream)
[image2 @ 00000250bd84df00] Opening 'D:/Peliprojektit/Projektit/Baltic_Loop/QGIS_kartta/frame0013.png' for reading
[file @ 00000250bd886840] Setting default whitelist 'file,crypto,data'
[AVIOContext @ 00000250bdd05f00] Statistics: 995988 bytes read, 0 seeks
cur_dts is invalid st:0 (0) [init:0 i_done:0 finish:0] (this is harmless if it occurs once at the start per stream)
[image2 @ 00000250bd84df00] Opening 'D:/Peliprojektit/Projektit/Baltic_Loop/QGIS_kartta/frame0014.png' for reading
[file @ 00000250bd886840] Setting default whitelist 'file,crypto,data'
[AVIOContext @ 00000250bdd05f00] Statistics: 994995 bytes read, 0 seeks
cur_dts is invalid st:0 (0) [init:0 i_done:0 finish:0] (this is harmless if it occurs once at the start per stream)
[image2 @ 00000250bd84df00] Opening 'D:/Peliprojektit/Projektit/Baltic_Loop/QGIS_kartta/frame0015.png' for reading
[file @ 00000250bd886cc0] Setting default whitelist 'file,crypto,data'
[AVIOContext @ 00000250c6982180] Statistics: 994226 bytes read, 0 seeks
cur_dts is invalid st:0 (0) [init:0 i_done:0 finish:0] (this is harmless if it occurs once at the start per stream)
[image2 @ 00000250bd84df00] Opening 'D:/Peliprojektit/Projektit/Baltic_Loop/QGIS_kartta/frame0016.png' for reading
[file @ 00000250bd887440] Setting default whitelist 'file,crypto,data'
[AVIOContext @ 00000250c69822c0] Statistics: 993584 bytes read, 0 seeks
cur_dts is invalid st:0 (0) [init:0 i_done:0 finish:0] (this is harmless if it occurs once at the start per stream)
[image2 @ 00000250bd84df00] Opening 'D:/Peliprojektit/Projektit/Baltic_Loop/QGIS_kartta/frame0017.png' for reading
[file @ 00000250bd886a00] Setting default whitelist 'file,crypto,data'
[AVIOContext @ 00000250c6981d80] Statistics: 993191 bytes read, 0 seeks
cur_dts is invalid st:0 (0) [init:0 i_done:0 finish:0] (this is harmless if it occurs once at the start per stream)
[image2 @ 00000250bd84df00] Opening 'D:/Peliprojektit/Projektit/Baltic_Loop/QGIS_kartta/frame0018.png' for reading
[file @ 00000250bd886a00] Setting default whitelist 'file,crypto,data'
[AVIOContext @ 00000250c6982400] Statistics: 992724 bytes read, 0 seeks
cur_dts is invalid st:0 (0) [init:0 i_done:0 finish:0] (this is harmless if it occurs once at the start per stream)
[image2 @ 00000250bd84df00] Opening 'D:/Peliprojektit/Projektit/Baltic_Loop/QGIS_kartta/frame0019.png' for reading
[file @ 00000250bd886840] Setting default whitelist 'file,crypto,data'
[AVIOContext @ 00000250c6982180] Statistics: 992109 bytes read, 0 seeks
cur_dts is invalid st:0 (0) [init:0 i_done:0 finish:0] (this is harmless if it occurs once at the start per stream)
[image2 @ 00000250bd84df00] Opening 'D:/Peliprojektit/Projektit/Baltic_Loop/QGIS_kartta/frame0020.png' for reading
[file @ 00000250bd886a00] Setting default whitelist 'file,crypto,data'
[AVIOContext @ 00000250c6981d80] Statistics: 991645 bytes read, 0 seeks
cur_dts is invalid st:0 (0) [init:0 i_done:0 finish:0] (this is harmless if it occurs once at the start per stream)
[image2 @ 00000250bd84df00] Opening 'D:/Peliprojektit/Projektit/Baltic_Loop/QGIS_kartta/frame0021.png' for reading
[file @ 00000250bd886a00] Setting default whitelist 'file,crypto,data'
[AVIOContext @ 00000250c6982540] Statistics: 990279 bytes read, 0 seeks
cur_dts is invalid st:0 (0) [init:0 i_done:0 finish:0] (this is harmless if it occurs once at the start per stream)
[image2 @ 00000250bd84df00] Opening 'D:/Peliprojektit/Projektit/Baltic_Loop/QGIS_kartta/frame0022.png' for reading
[file @ 00000250bd887380] Setting default whitelist 'file,crypto,data'
[AVIOContext @ 00000250c6982a80] Statistics: 989815 bytes read, 0 seeks
cur_dts is invalid st:0 (0) [init:0 i_done:0 finish:0] (this is harmless if it occurs once at the start per stream)
[image2 @ 00000250bd84df00] Opening 'D:/Peliprojektit/Projektit/Baltic_Loop/QGIS_kartta/frame0023.png' for reading
[file @ 00000250bd886900] Setting default whitelist 'file,crypto,data'
[AVIOContext @ 00000250c69822c0] Statistics: 989156 bytes read, 0 seeks
cur_dts is invalid st:0 (0) [init:0 i_done:0 finish:0] (this is harmless if it occurs once at the start per stream)
[image2 @ 00000250bd84df00] Opening 'D:/Peliprojektit/Projektit/Baltic_Loop/QGIS_kartta/frame0024.png' for reading
[file @ 00000250bd886fc0] Setting default whitelist 'file,crypto,data'
[AVIOContext @ 00000250c6982000] Statistics: 988826 bytes read, 0 seeks
cur_dts is invalid st:0 (0) [init:0 i_done:0 finish:0] (this is harmless if it occurs once at the start per stream)
[image2 @ 00000250bd84df00] Opening 'D:/Peliprojektit/Projektit/Baltic_Loop/QGIS_kartta/frame0025.png' for reading
[file @ 00000250bd886cc0] Setting default whitelist 'file,crypto,data'
[AVIOContext @ 00000250c6982a80] Statistics: 988260 bytes read, 0 seeks
cur_dts is invalid st:0 (0) [init:0 i_done:0 finish:0] (this is harmless if it occurs once at the start per stream)
[image2 @ 00000250bd84df00] Opening 'D:/Peliprojektit/Projektit/Baltic_Loop/QGIS_kartta/frame0026.png' for reading
[file @ 00000250bd886840] Setting default whitelist 'file,crypto,data'
[AVIOContext @ 00000250c6982800] Statistics: 987572 bytes read, 0 seeks
cur_dts is invalid st:0 (0) [init:0 i_done:0 finish:0] (this is harmless if it occurs once at the start per stream)
[image2 @ 00000250bd84df00] Opening 'D:/Peliprojektit/Projektit/Baltic_Loop/QGIS_kartta/frame0027.png' for reading
[file @ 00000250bd887280] Setting default whitelist 'file,crypto,data'
[AVIOContext @ 00000250c6982400] Statistics: 987089 bytes read, 0 seeks
cur_dts is invalid st:0 (0) [init:0 i_done:0 finish:0] (this is harmless if it occurs once at the start per stream)
[image2 @ 00000250bd84df00] Opening 'D:/Peliprojektit/Projektit/Baltic_Loop/QGIS_kartta/frame0028.png' for reading
[file @ 00000250bd886dc0] Setting default whitelist 'file,crypto,data'
[AVIOContext @ 00000250c6982000] Statistics: 986492 bytes read, 0 seeks
cur_dts is invalid st:0 (0) [init:0 i_done:0 finish:0] (this is harmless if it occurs once at the start per stream)
[image2 @ 00000250bd84df00] Opening 'D:/Peliprojektit/Projektit/Baltic_Loop/QGIS_kartta/frame0029.png' for reading
[file @ 00000250bd886cc0] Setting default whitelist 'file,crypto,data'
[AVIOContext @ 00000250c6982800] Statistics: 986086 bytes read, 0 seeks
cur_dts is invalid st:0 (0) [init:0 i_done:0 finish:0] (this is harmless if it occurs once at the start per stream)
[image2 @ 00000250bd84df00] Opening 'D:/Peliprojektit/Projektit/Baltic_Loop/QGIS_kartta/frame0030.png' for reading
[file @ 00000250bd887380] Setting default whitelist 'file,crypto,data'
[AVIOContext @ 00000250c6982400] Statistics: 985610 bytes read, 0 seeks
cur_dts is invalid st:0 (0) [init:0 i_done:0 finish:0] (this is harmless if it occurs once at the start per stream)
[image2 @ 00000250bd84df00] Opening 'D:/Peliprojektit/Projektit/Baltic_Loop/QGIS_kartta/frame0031.png' for reading
[file @ 00000250bd886840] Setting default whitelist 'file,crypto,data'
[AVIOContext @ 00000250c6982000] Statistics: 985418 bytes read, 0 seeks
cur_dts is invalid st:0 (0) [init:0 i_done:0 finish:0] (this is harmless if it occurs once at the start per stream)
[image2 @ 00000250bd84df00] Opening 'D:/Peliprojektit/Projektit/Baltic_Loop/QGIS_kartta/frame0032.png' for reading
[file @ 00000250bd886b00] Setting default whitelist 'file,crypto,data'
[AVIOContext @ 00000250c6982400] Statistics: 984983 bytes read, 0 seeks
cur_dts is invalid st:0 (0) [init:0 i_done:0 finish:0] (this is harmless if it occurs once at the start per stream)
[image2 @ 00000250bd84df00] Opening 'D:/Peliprojektit/Projektit/Baltic_Loop/QGIS_kartta/frame0033.png' for reading
[file @ 00000250bd886a00] Setting default whitelist 'file,crypto,data'
[AVIOContext @ 00000250c6982540] Statistics: 982981 bytes read, 0 seeks
cur_dts is invalid st:0 (0) [init:0 i_done:0 finish:0] (this is harmless if it occurs once at the start per stream)
[image2 @ 00000250bd84df00] Opening 'D:/Peliprojektit/Projektit/Baltic_Loop/QGIS_kartta/frame0034.png' for reading
[file @ 00000250bd887080] Setting default whitelist 'file,crypto,data'
[AVIOContext @ 00000250c6982180] Statistics: 981383 bytes read, 0 seeks
cur_dts is invalid st:0 (0) [init:0 i_done:0 finish:0] (this is harmless if it occurs once at the start per stream)
[image2 @ 00000250bd84df00] Opening 'D:/Peliprojektit/Projektit/Baltic_Loop/QGIS_kartta/frame0035.png' for reading
[file @ 00000250bd887380] Setting default whitelist 'file,crypto,data'
[AVIOContext @ 00000250c6982a80] Statistics: 980487 bytes read, 0 seeks
cur_dts is invalid st:0 (0) [init:0 i_done:0 finish:0] (this is harmless if it occurs once at the start per stream)
[image2 @ 00000250bd84df00] Opening 'D:/Peliprojektit/Projektit/Baltic_Loop/QGIS_kartta/frame0036.png' for reading
[file @ 00000250bd887180] Setting default whitelist 'file,crypto,data'
[AVIOContext @ 00000250c6982940] Statistics: 978812 bytes read, 0 seeks
cur_dts is invalid st:0 (0) [init:0 i_done:0 finish:0] (this is harmless if it occurs once at the start per stream)
[image2 @ 00000250bd84df00] Opening 'D:/Peliprojektit/Projektit/Baltic_Loop/QGIS_kartta/frame0037.png' for reading
[file @ 00000250bd887180] Setting default whitelist 'file,crypto,data'
[AVIOContext @ 00000250c6982940] Statistics: 977059 bytes read, 0 seeks
cur_dts is invalid st:0 (0) [init:0 i_done:0 finish:0] (this is harmless if it occurs once at the start per stream)
[image2 @ 00000250bd84df00] Opening 'D:/Peliprojektit/Projektit/Baltic_Loop/QGIS_kartta/frame0038.png' for reading
[file @ 00000250bd886a00] Setting default whitelist 'file,crypto,data'
[AVIOContext @ 00000250c6982940] Statistics: 974518 bytes read, 0 seeks
cur_dts is invalid st:0 (0) [init:0 i_done:0 finish:0] (this is harmless if it occurs once at the start per stream)
[image2 @ 00000250bd84df00] Opening 'D:/Peliprojektit/Projektit/Baltic_Loop/QGIS_kartta/frame0039.png' for reading
[file @ 00000250bd886c00] Setting default whitelist 'file,crypto,data'
[AVIOContext @ 00000250c6982400] Statistics: 971658 bytes read, 0 seeks
cur_dts is invalid st:0 (0) [init:0 i_done:0 finish:0] (this is harmless if it occurs once at the start per stream)
[image2 @ 00000250bd84df00] Opening 'D:/Peliprojektit/Projektit/Baltic_Loop/QGIS_kartta/frame0040.png' for reading
[file @ 00000250bd887440] Setting default whitelist 'file,crypto,data'
[AVIOContext @ 00000250c6982940] Statistics: 968893 bytes read, 0 seeks
cur_dts is invalid st:0 (0) [init:0 i_done:0 finish:0] (this is harmless if it occurs once at the start per stream)
[image2 @ 00000250bd84df00] Opening 'D:/Peliprojektit/Projektit/Baltic_Loop/QGIS_kartta/frame0041.png' for reading
[file @ 00000250bd886dc0] Setting default whitelist 'file,crypto,data'
[AVIOContext @ 00000250c6982400] Statistics: 966706 bytes read, 0 seeks
cur_dts is invalid st:0 (0) [init:0 i_done:0 finish:0] (this is harmless if it occurs once at the start per stream)
[image2 @ 00000250bd84df00] Opening 'D:/Peliprojektit/Projektit/Baltic_Loop/QGIS_kartta/frame0042.png' for reading
[file @ 00000250bd887440] Setting default whitelist 'file,crypto,data'
[AVIOContext @ 00000250c6982180] Statistics: 964834 bytes read, 0 seeks
cur_dts is invalid st:0 (0) [init:0 i_done:0 finish:0] (this is harmless if it occurs once at the start per stream)
[image2 @ 00000250bd84df00] Opening 'D:/Peliprojektit/Projektit/Baltic_Loop/QGIS_kartta/frame0043.png' for reading
[file @ 00000250bd886ec0] Setting default whitelist 'file,crypto,data'
[AVIOContext @ 00000250c6982540] Statistics: 962660 bytes read, 0 seeks
cur_dts is invalid st:0 (0) [init:0 i_done:0 finish:0] (this is harmless if it occurs once at the start per stream)
[image2 @ 00000250bd84df00] Opening 'D:/Peliprojektit/Projektit/Baltic_Loop/QGIS_kartta/frame0044.png' for reading
[file @ 00000250bd887280] Setting default whitelist 'file,crypto,data'
[AVIOContext @ 00000250c6982400] Statistics: 960018 bytes read, 0 seeks
cur_dts is invalid st:0 (0) [init:0 i_done:0 finish:0] (this is harmless if it occurs once at the start per stream)
[image2 @ 00000250bd84df00] Opening 'D:/Peliprojektit/Projektit/Baltic_Loop/QGIS_kartta/frame0045.png' for reading
[file @ 00000250bd887440] Setting default whitelist 'file,crypto,data'
[AVIOContext @ 00000250c6982540] Statistics: 957116 bytes read, 0 seeks
cur_dts is invalid st:0 (0) [init:0 i_done:0 finish:0] (this is harmless if it occurs once at the start per stream)
[image2 @ 00000250bd84df00] Opening 'D:/Peliprojektit/Projektit/Baltic_Loop/QGIS_kartta/frame0046.png' for reading
[file @ 00000250bd886840] Setting default whitelist 'file,crypto,data'
[AVIOContext @ 00000250c6982400] Statistics: 954165 bytes read, 0 seeks
cur_dts is invalid st:0 (0) [init:0 i_done:0 finish:0] (this is harmless if it occurs once at the start per stream)
[image2 @ 00000250bd84df00] Opening 'D:/Peliprojektit/Projektit/Baltic_Loop/QGIS_kartta/frame0047.png' for reading
[file @ 00000250bd886ec0] Setting default whitelist 'file,crypto,data'
[AVIOContext @ 00000250c6982000] Statistics: 951411 bytes read, 0 seeks
cur_dts is invalid st:0 (0) [init:0 i_done:0 finish:0] (this is harmless if it occurs once at the start per stream)
[image2 @ 00000250bd84df00] Opening 'D:/Peliprojektit/Projektit/Baltic_Loop/QGIS_kartta/frame0048.png' for reading
[file @ 00000250bd886cc0] Setting default whitelist 'file,crypto,data'
[AVIOContext @ 00000250c6982540] Statistics: 948690 bytes read, 0 seeks
cur_dts is invalid st:0 (0) [init:0 i_done:0 finish:0] (this is harmless if it occurs once at the start per stream)
[image2 @ 00000250bd84df00] Opening 'D:/Peliprojektit/Projektit/Baltic_Loop/QGIS_kartta/frame0049.png' for reading
[file @ 00000250bd886ec0] Setting default whitelist 'file,crypto,data'
[AVIOContext @ 00000250c6982400] Statistics: 945328 bytes read, 0 seeks
cur_dts is invalid st:0 (0) [init:0 i_done:0 finish:0] (this is harmless if it occurs once at the start per stream)
[image2 @ 00000250bd84df00] Opening 'D:/Peliprojektit/Projektit/Baltic_Loop/QGIS_kartta/frame0050.png' for reading
[file @ 00000250bd886c00] Setting default whitelist 'file,crypto,data'
[AVIOContext @ 00000250c6982800] Statistics: 942852 bytes read, 0 seeks
cur_dts is invalid st:0 (0) [init:0 i_done:0 finish:0] (this is harmless if it occurs once at the start per stream)
    Last message repeated 8 times
[Parsed_palettegen_0 @ 00000250bc1778c0] 255(+1) colors generated out of 31367 colors; ratio=0.008130
[Parsed_palettegen_0 @ 00000250bc1778c0] Dupped color: FFFAD4A0
[Parsed_palettegen_0 @ 00000250bc1778c0] Dupped color: FFFAD4A1
cur_dts is invalid st:0 (0) [init:0 i_done:0 finish:0] (this is harmless if it occurs once at the start per stream)
Output #0, image2, to 'D:/Peliprojektit/Projektit/Baltic_Loop/QGIS_kartta/palette.png':
  Metadata:
    encoder         : Lavf58.67.100
  Stream #0:0, 0, 1/24: Video: png, 1 reference frame, rgba(pc, progressive), 16x16 (0x0) [SAR 1:1 DAR 1:1], 0/1, q=2-31, 200 kb/s, 24 fps, 24 tbn
    Metadata:
      encoder         : Lavc58.122.100 png
Clipping frame in rate conversion by 0.000008
frame=    1 fps=0.7 q=0.0 size=N/A time=00:00:00.00 bitrate=N/A speed=   0x    cur_dts is invalid st:0 (0) [init:1 i_done:0 finish:0] (this is harmless if it occurs once at the start per stream)
[out_0_0 @ 00000250bde02780] EOF on sink link out_0_0:default.
No more output streams to write to, finishing.
[image2 @ 00000250bddfc980] Opening 'D:/Peliprojektit/Projektit/Baltic_Loop/QGIS_kartta/palette.png' for writing
[file @ 00000250bd887380] Setting default whitelist 'file,crypto,data'
[AVIOContext @ 00000250c6982940] Statistics: 0 seeks, 1 writeouts
frame=    1 fps=0.7 q=-0.0 Lsize=N/A time=00:00:00.04 bitrate=N/A speed=0.0288x    
[AVIOContext @ 00000250bd84ddc0] Statistics: 0 seeks, 2 writeouts
video:1kB audio:0kB subtitle:0kB other streams:0kB global headers:0kB muxing overhead: unknown
Input file #0 (D:/Peliprojektit/Projektit/Baltic_Loop/QGIS_kartta/frame%04d.png):
  Input stream #0:0 (video): 51 packets read (50185492 bytes); 51 frames decoded; 
  Total: 51 packets (50185492 bytes) demuxed
Output file #0 (D:/Peliprojektit/Projektit/Baltic_Loop/QGIS_kartta/palette.png):
  Output stream #0:0 (video): 1 frames encoded; 1 packets muxed (991 bytes); 
  Total: 1 packets (991 bytes) muxed
51 frames successfully decoded, 0 decoding errors
